<?xml version="1.0" standalone="no"?>
<!DOCTYPE svg PUBLIC "-//W3C//DTD SVG 20010904//EN"
 "http://www.w3.org/TR/2001/REC-SVG-20010904/DTD/svg10.dtd">
<svg version="1.0" xmlns="http://www.w3.org/2000/svg"
 width="750.000000pt" height="433.000000pt" viewBox="0 0 750.000000 433.000000"
 preserveAspectRatio="xMidYMid meet">

<g transform="translate(0.000000,433.000000) scale(0.100000,-0.100000)"
fill="#000000" stroke="none">
<path d="M0 2165 l0 -2165 3750 0 3750 0 0 2165 0 2165 -3750 0 -3750 0 0
-2165z m890 1595 l0 -30 -62 0 c-95 0 -108 -6 -108 -46 l0 -34 75 0 75 0 0
-30 0 -30 -75 0 -75 0 0 -60 0 -60 -35 0 -35 0 0 160 0 160 120 0 120 0 0 -30z
m225 6 c15 -23 135 -282 135 -291 0 -3 -18 -5 -39 -5 -36 0 -40 3 -51 35 l-12
35 -74 0 -75 0 -15 -35 c-13 -32 -18 -35 -54 -35 l-40 0 19 48 c18 44 109 234
125 260 13 22 64 14 81 -12z m263 -138 l3 -158 -36 0 -35 0 0 154 c0 161 2
167 45 163 19 -2 20 -10 23 -159z m370 141 c2 -9 -34 -60 -80 -114 -129 -151
-127 -137 -17 -134 l94 2 3 -27 3 -26 -145 0 c-141 0 -146 1 -146 21 0 12 38
64 90 123 50 57 90 106 90 110 0 3 -36 6 -80 6 l-80 0 0 30 0 31 132 -3 c113
-3 133 -5 136 -19z m802 -9 c0 -28 -1 -29 -57 -32 l-58 -3 -3 -127 -3 -128
-34 0 -35 0 0 130 0 130 -55 0 c-54 0 -55 0 -55 30 l0 30 150 0 150 0 0 -30z
m251 -97 c34 -71 67 -143 75 -160 l14 -33 -38 0 c-34 0 -40 4 -55 35 l-17 35
-74 0 -74 0 -12 -35 c-11 -32 -15 -35 -51 -35 -21 0 -39 1 -39 3 0 5 134 290
143 305 5 6 21 12 38 12 27 0 32 -7 90 -127z m-593 -35 l72 -153 -31 -3 c-41
-4 -59 3 -59 26 0 33 -21 42 -96 42 -71 0 -72 0 -84 -31 -14 -32 -42 -49 -71
-42 -22 6 -22 4 54 176 l61 137 42 0 41 0 71 -152z m-938 -333 c16 -20 5 -32
-14 -16 -19 16 -61 10 -61 -9 0 -8 15 -18 38 -23 38 -9 56 -39 44 -72 -13 -31
-107 -31 -107 0 0 18 2 18 34 4 19 -9 29 -9 40 0 20 17 10 38 -22 46 -15 4
-33 11 -39 17 -17 13 -17 55 0 61 26 11 75 6 87 -8z m-508 -62 c15 -40 21 -70
15 -72 -5 -2 -14 4 -19 13 -12 21 -88 23 -88 2 0 -14 -24 -29 -33 -20 -3 3 9
36 27 75 24 53 36 69 52 69 17 0 26 -13 46 -67z m88 2 c0 -64 0 -65 28 -65 21
0 24 -2 12 -10 -8 -5 -27 -10 -42 -10 l-28 0 0 75 c0 60 3 75 15 75 12 0 15
-14 15 -65z m110 -10 c0 -68 -2 -75 -19 -75 -11 0 -23 5 -26 10 -3 6 -1 10 4
10 7 0 11 26 11 65 0 51 3 65 15 65 12 0 15 -15 15 -75z m157 6 c25 -68 24
-84 -5 -58 -24 22 -78 22 -90 1 -5 -9 -14 -15 -20 -13 -8 3 0 29 20 72 41 89
61 89 95 -2z m380 -1 c28 -63 29 -70 13 -70 -10 0 -20 6 -23 14 -9 23 -67 26
-80 4 -11 -16 -37 -26 -37 -13 0 21 67 135 80 135 9 0 28 -28 47 -70z m83 5
l0 -65 45 0 45 0 0 65 c0 51 3 65 15 65 12 0 15 -14 15 -69 l0 -68 -41 -6
c-23 -3 -56 -3 -75 0 l-34 6 0 68 c0 55 3 69 15 69 12 0 15 -14 15 -65z m280
59 c0 -3 -20 -30 -45 -58 -25 -29 -45 -57 -45 -61 0 -4 18 -5 41 -2 28 4 39 2
36 -6 -4 -13 -106 -17 -114 -4 -2 4 14 29 36 56 23 27 41 52 41 56 0 4 -13 5
-30 3 -20 -3 -30 0 -30 9 0 9 16 13 55 13 30 0 55 -3 55 -6z m144 -63 c20 -38
36 -72 36 -75 0 -15 -30 -4 -40 14 -14 25 -77 28 -95 4 -6 -9 -17 -15 -23 -13
-8 3 -3 22 14 59 47 102 59 104 108 11z m524 -1053 c-2 -93 -6 -113 -18 -113
-12 0 -16 20 -18 113 -3 107 -2 112 18 112 20 0 21 -5 18 -112z m192 30 c62
-79 65 -81 68 -53 9 110 14 135 28 135 11 0 14 -21 14 -109 0 -152 -13 -155
-112 -29 l-63 81 -3 -87 c-3 -78 -5 -86 -22 -86 -19 0 -20 7 -20 115 0 113 0
115 23 115 16 0 40 -22 87 -82z m337 65 c3 -8 -14 -13 -54 -15 -55 -3 -58 -5
-61 -30 -3 -26 -1 -27 45 -30 35 -2 48 -7 48 -18 0 -11 -13 -16 -47 -18 l-47
-3 -3 -47 c-2 -34 -7 -47 -18 -47 -12 0 -16 19 -18 99 -1 55 0 106 2 113 7 18
147 14 153 -4z m255 -22 c52 -58 33 -147 -38 -177 -115 -48 -223 51 -169 156
23 44 61 61 124 57 46 -3 59 -9 83 -36z m247 15 c32 -29 27 -72 -10 -91 l-30
-16 30 -35 c17 -19 31 -41 31 -49 0 -29 -29 -14 -61 30 -22 31 -40 45 -56 45
-21 0 -23 -5 -23 -45 0 -38 -3 -45 -20 -45 -19 0 -20 7 -20 108 0 60 3 112 8
116 14 15 130 1 151 -18z m591 -82 c27 -59 50 -111 50 -115 0 -20 -38 -7 -48
16 -11 23 -17 25 -75 25 -58 0 -65 -2 -75 -25 -11 -24 -42 -35 -42 -15 0 12
87 189 102 208 22 27 39 8 88 -94z m248 84 c3 -15 -4 -18 -37 -18 l-41 0 0
-95 c0 -88 -1 -95 -20 -95 -19 0 -20 7 -20 95 l0 95 -40 0 c-34 0 -40 3 -40
20 0 20 5 21 97 18 84 -3 98 -6 101 -20z m77 -94 c0 -96 -2 -109 -17 -112 -16
-3 -18 7 -18 106 0 60 3 112 7 116 21 20 28 -8 28 -110z m253 96 c23 -10 42
-24 42 -30 0 -19 -28 -22 -52 -6 -12 9 -39 16 -59 16 -72 0 -108 -96 -53 -139
32 -25 96 -28 114 -6 16 19 50 19 50 0 0 -18 -35 -41 -77 -50 -75 -15 -153 43
-153 115 0 62 58 116 130 119 8 0 34 -8 58 -19z m-989 -72 l37 -82 45 82 c35
65 49 82 67 82 21 0 22 -3 22 -110 0 -103 -1 -110 -20 -110 -18 0 -20 7 -21
83 l-1 82 -30 -65 c-34 -73 -56 -102 -71 -93 -5 3 -27 42 -48 87 l-38 81 0
-88 c-1 -75 -3 -88 -17 -85 -8 2 -15 6 -15 11 1 4 1 52 1 107 l0 100 25 0 c23
0 31 -11 64 -82z m1231 64 c20 -16 21 -19 6 -31 -14 -12 -19 -11 -35 3 -23 21
-75 18 -79 -5 -2 -11 9 -20 30 -28 105 -39 124 -61 93 -107 -21 -32 -60 -47
-108 -41 -44 6 -67 22 -67 48 0 24 15 24 47 -1 31 -24 51 -25 80 -5 32 23 19
40 -48 64 -65 24 -86 49 -69 81 6 10 18 24 28 29 28 17 98 13 122 -7z m-2260
-327 c0 -12 -13 -15 -55 -15 -54 0 -55 0 -55 -29 0 -28 2 -30 48 -33 34 -2 47
-7 47 -18 0 -11 -13 -15 -50 -16 -48 -1 -50 -2 -53 -33 l-3 -31 65 0 c59 0 66
-2 66 -20 0 -18 -7 -20 -80 -20 l-80 0 0 115 0 115 75 0 c60 0 75 -3 75 -15z
m182 -64 c35 -44 66 -80 71 -80 4 -1 7 33 7 74 0 60 3 75 15 75 12 0 15 -16
15 -87 0 -49 3 -98 6 -110 5 -19 2 -23 -14 -23 -14 0 -45 29 -92 85 -39 47
-73 85 -76 85 -3 0 -4 -37 -3 -82 2 -70 0 -83 -14 -86 -15 -3 -17 10 -17 112
0 109 1 116 20 116 12 0 42 -28 82 -79z m367 63 c52 -21 66 -49 19 -39 -86 18
-123 17 -148 -3 -33 -27 -34 -87 -1 -113 49 -40 123 -35 129 8 3 17 -3 22 -24
25 -15 2 -29 9 -32 16 -2 8 11 12 47 12 l51 0 0 -49 c0 -48 -1 -50 -36 -61
-20 -7 -59 -10 -87 -7 -68 6 -107 47 -107 111 0 92 90 140 189 100z m337 -77
l69 -82 3 83 c3 74 5 82 22 82 19 0 20 -7 20 -105 0 -149 -15 -150 -131 -12
l-49 58 0 -80 c0 -74 -2 -81 -20 -81 -19 0 -20 7 -20 108 0 60 3 111 6 115 12
12 34 -6 100 -86z m-186 -28 c0 -100 -2 -110 -17 -107 -16 3 -18 18 -21 111
-3 102 -2 107 18 107 19 0 20 -6 20 -111z m490 96 c0 -11 -12 -15 -46 -15 -44
0 -45 -1 -42 -27 3 -25 7 -28 46 -31 28 -2 42 -8 42 -18 0 -10 -12 -14 -45
-14 -45 0 -45 0 -45 -35 l0 -35 64 0 63 0 -2 95 -2 95 74 0 c57 0 73 -3 73
-14 0 -11 -15 -16 -52 -18 -49 -3 -53 -5 -53 -28 0 -23 4 -25 48 -28 33 -2 47
-7 47 -18 0 -10 -13 -14 -50 -14 l-50 0 0 -35 0 -35 55 0 c42 0 55 -3 55 -15
0 -13 -23 -15 -150 -15 l-150 0 0 110 0 110 60 0 c47 0 60 -3 60 -15z m392 -2
c21 -19 24 -75 6 -91 -7 -5 -21 -11 -32 -13 -15 -3 -12 -11 24 -51 41 -47 41
-48 17 -48 -18 0 -37 13 -63 45 -20 25 -45 45 -55 45 -16 0 -19 -8 -19 -45 0
-31 -4 -45 -14 -45 -13 0 -26 95 -26 187 l0 33 72 0 c52 0 76 -4 90 -17z m128
-94 c0 -100 -2 -110 -17 -107 -23 4 -27 33 -18 135 5 62 10 83 21 83 11 0 14
-22 14 -111z m190 24 l65 -81 3 84 c2 76 5 84 22 84 19 0 20 -7 20 -108 0 -60
-3 -111 -6 -114 -13 -14 -44 10 -106 84 l-68 79 0 -80 c0 -74 -2 -81 -20 -81
-19 0 -20 7 -20 111 0 109 0 110 23 107 14 -2 46 -33 87 -85z m381 70 c16 -10
29 -21 29 -24 0 -15 -36 -15 -64 -1 -57 28 -136 -14 -136 -72 0 -52 68 -93
127 -77 41 11 43 46 4 54 -49 10 -36 27 19 27 l50 0 0 -37 c0 -21 -4 -43 -8
-49 -24 -36 -111 -45 -168 -18 -81 38 -84 156 -6 198 37 21 117 20 153 -1z
m-1178 -1533 c42 -47 35 -97 -27 -184 -26 -36 -51 -68 -56 -71 -4 -2 -31 29
-59 71 -53 79 -65 129 -41 174 32 59 135 64 183 10z m-525 -86 c34 -3 62 -10
62 -15 0 -11 -1159 -12 -2197 -2 -502 4 -713 9 -713 17 0 12 2726 12 2848 0z"/>
<path d="M1052 3659 c-12 -29 -20 -54 -18 -56 2 -2 22 -3 44 -1 l40 3 -22 53
-23 53 -21 -52z"/>
<path d="M2688 3657 c-10 -23 -18 -46 -18 -50 0 -4 18 -7 40 -7 22 0 40 3 40
7 0 13 -35 93 -40 93 -3 0 -13 -19 -22 -43z"/>
<path d="M2073 3659 l-20 -54 39 -3 c22 -2 42 -1 45 2 3 2 -6 28 -19 57 l-24
53 -21 -55z"/>
<path d="M696 3248 c-9 -35 -8 -38 19 -38 29 0 29 0 13 35 -14 31 -24 32 -32
3z"/>
<path d="M1052 3245 c-16 -35 -16 -35 13 -35 28 0 32 17 12 44 -12 17 -14 16
-25 -9z"/>
<path d="M1437 3256 c-12 -31 -8 -46 13 -46 23 0 26 18 7 44 -13 18 -14 18
-20 2z"/>
<path d="M1936 3244 c-10 -27 -7 -31 19 -26 21 3 23 7 14 23 -12 23 -25 24
-33 3z"/>
<path d="M3174 2249 c-44 -22 -58 -95 -24 -129 61 -61 175 -7 154 75 -12 49
-83 78 -130 54z"/>
<path d="M3440 2221 c0 -29 2 -31 38 -31 46 0 65 12 60 36 -2 15 -14 20 -51
22 -46 3 -47 3 -47 -27z"/>
<path d="M4061 2202 c-11 -23 -21 -44 -21 -47 0 -3 18 -5 41 -5 37 0 40 2 33
23 -3 12 -12 33 -19 46 l-13 25 -21 -42z"/>
<path d="M4170 1875 c0 -34 1 -35 38 -35 53 0 78 20 63 48 -9 18 -21 22 -56
22 -45 0 -45 0 -45 -35z"/>
<path d="M3701 356 c-19 -22 -9 -68 15 -77 48 -17 89 57 45 81 -27 14 -46 13
-60 -4z"/>
</g>
</svg>
